HIERARCHY
ROOT Hips
{
	OFFSET 0.0000 0.0000 0.0000
	CHANNELS 6 Xposition Yposition Zposition Zrotation Xrotation Yrotation
	JOINT Spine1
	{
		OFFSET -0.0137 5.0038 -0.0537
		CHANNELS 3 Zrotation Xrotation Yrotation
		JOINT Spine2
		{
			OFFSET -0.0000 7.1253 -0.0298
			CHANNELS 3 Zrotation Xrotation Yrotation
			JOINT Chest
			{
				OFFSET -0.0000 7.5501 -0.8160
				CHANNELS 3 Zrotation Xrotation Yrotation
				JOINT Neck1
				{
					OFFSET -0.1817 26.3113 -0.5533
					CHANNELS 3 Zrotation Xrotation Yrotation
					JOINT Neck2
					{
						OFFSET -0.0000 7.7094 2.3026
						CHANNELS 3 Zrotation Xrotation Yrotation
						JOINT Head
						{
							OFFSET -0.0000 6.1289 1.9537
							CHANNELS 3 Zrotation Xrotation Yrotation
							JOINT Jaw
							{
								OFFSET 0.0026 0.4756 3.0949
								CHANNELS 3 Zrotation Xrotation Yrotation
								End Site
								{
									OFFSET 0.0 1.0 0.0
								}
							}
							JOINT LeftEye
							{
								OFFSET 3.2064 5.3802 7.5869
								CHANNELS 3 Zrotation Xrotation Yrotation
								End Site
								{
									OFFSET 0.0 1.0 0.0
								}
							}
							JOINT RightEye
							{
								OFFSET -3.2224 5.3619 7.5582
								CHANNELS 3 Zrotation Xrotation Yrotation
								End Site
								{
									OFFSET 0.0 1.0 0.0
								}
							}
						}
					}
				}
				JOINT LeftShoulder
				{
					OFFSET 1.6217 23.2372 5.1134
					CHANNELS 3 Zrotation Xrotation Yrotation
					JOINT LeftArm
					{
						OFFSET 14.9198 0.0000 -5.5023
						CHANNELS 3 Zrotation Xrotation Yrotation
						JOINT LeftForeArm
						{
							OFFSET 28.7393 0.0000 -0.0026
							CHANNELS 3 Zrotation Xrotation Yrotation
							JOINT LeftHand
							{
								OFFSET 27.0940 -0.0000 0.0026
								CHANNELS 3 Zrotation Xrotation Yrotation
								JOINT LeftHandThumbEnd
								{
									OFFSET 12.2686 -3.2202 4.8331
									CHANNELS 3 Zrotation Xrotation Yrotation
									End Site
									{
										OFFSET 0.0 1.0 0.0
									}
								}
								JOINT LeftHandMiddleEnd
								{
									OFFSET 19.0120 -0.3129 -0.0340
									CHANNELS 3 Zrotation Xrotation Yrotation
									End Site
									{
										OFFSET 0.0 1.0 0.0
									}
								}
							}
						}
					}
				}
				JOINT RightShoulder
				{
					OFFSET -1.3801 23.1803 5.2142
					CHANNELS 3 Zrotation Xrotation Yrotation
					JOINT RightArm
					{
						OFFSET -15.0372 0.0000 -5.5456
						CHANNELS 3 Zrotation Xrotation Yrotation
						JOINT RightForeArm
						{
							OFFSET -28.7366 0.0000 -0.0026
							CHANNELS 3 Zrotation Xrotation Yrotation
							JOINT RightHand
							{
								OFFSET -27.1336 -0.0000 0.0026
								CHANNELS 3 Zrotation Xrotation Yrotation
								JOINT RightHandThumbEnd
								{
									OFFSET -12.2642 -3.2115 4.8040
									CHANNELS 3 Zrotation Xrotation Yrotation
									End Site
									{
										OFFSET 0.0 1.0 0.0
									}
								}
								JOINT RightHandMiddleEnd
								{
									OFFSET -19.0006 -0.3066 -0.0316
									CHANNELS 3 Zrotation Xrotation Yrotation
									End Site
									{
										OFFSET 0.0 1.0 0.0
									}
								}
							}
						}
					}
				}
			}
		}
	}
	JOINT LeftLeg
	{
		OFFSET 10.0432 -8.4345 2.5957
		CHANNELS 3 Zrotation Xrotation Yrotation
		JOINT LeftShin
		{
			OFFSET -0.0000 -43.2218 -0.8029
			CHANNELS 3 Zrotation Xrotation Yrotation
			JOINT LeftFoot
			{
				OFFSET 0.0000 -42.1551 -3.4815
				CHANNELS 3 Zrotation Xrotation Yrotation
				JOINT LeftToeBase
				{
					OFFSET 0.0000 -5.0595 13.2315
					CHANNELS 3 Zrotation Xrotation Yrotation
					End Site
					{
						OFFSET 0.0 1.0 0.0
					}
				}
			}
		}
	}
	JOINT RightLeg
	{
		OFFSET -10.0473 -8.2953 2.6203
		CHANNELS 3 Zrotation Xrotation Yrotation
		JOINT RightShin
		{
			OFFSET 0.0000 -43.3622 -0.8056
			CHANNELS 3 Zrotation Xrotation Yrotation
			JOINT RightFoot
			{
				OFFSET 0.0000 -42.1174 -3.4784
				CHANNELS 3 Zrotation Xrotation Yrotation
				JOINT RightToeBase
				{
					OFFSET -0.0000 -5.0796 13.2842
					CHANNELS 3 Zrotation Xrotation Yrotation
					End Site
					{
						OFFSET 0.0 1.0 0.0
					}
				}
			}
		}
	}
}
MOTION
Frames: 16
Frame Time: 0.033333
-0.7095 100.5644 5.7205 -0.6910 2.9754 0.1341 0.3990 -2.3639 -0.1035 -0.3322 -5.7574 -0.3374 0.9310 9.6641 -1.7891 2.3924 0.8855 1.9113 -0.7800 -3.6886 -0.4033 -0.9812 -8.5872 -0.8315 0.0107 0.0020 -0.0526 0.7194 -10.5935 -3.9184 -0.7008 -10.6309 3.8162 -21.5603 13.3278 -8.2027 -49.7847 8.4459 -37.4705 0.3026 0.1604 -27.3325 2.2487 -1.6381 0.1178 -15.5928 10.8283 15.9704 -60.3037 1.5747 2.5132 21.9937 11.0982 12.9879 55.2892 7.5599 14.6094 0.0682 0.1781 32.9784 -6.9433 -9.8168 3.7775 15.4606 7.3010 -16.1944 49.7278 -3.6751 -5.2058 1.3019 -0.2864 -6.4609 0.0460 1.8693 0.1508 -0.7386 -4.4615 6.1613 1.6439 -0.7262 -1.8590 -0.5231 -0.6947 1.4635 -0.0315 1.9778 0.0054 2.5276 -4.0457 -3.3808 -1.4325 -0.6364 1.1001
-0.7669 100.5485 6.0810 -0.7495 3.0401 0.0502 0.3894 -2.3814 -0.1049 -0.3216 -5.7549 -0.2885 0.9607 9.6276 -1.8614 2.3995 0.8972 1.9316 -0.7841 -3.6798 -0.3573 -1.0361 -8.5595 -0.7898 0.0080 0.0031 -0.0312 0.7188 -10.5991 -3.8968 -0.7056 -10.6386 3.8372 -21.5702 13.2974 -8.2021 -49.8097 8.4250 -37.5945 0.2027 0.0886 -27.0710 2.2302 -1.6446 0.0489 -15.5874 10.8240 15.9476 -60.2700 1.5855 2.4227 21.9854 11.0877 12.9366 55.2622 7.5469 14.9018 -0.0222 0.1706 32.7349 -6.7710 -9.8030 3.8698 15.4969 7.2857 -16.2183 49.8794 -3.6683 -5.2068 1.2692 -0.2079 -6.5039 0.0388 1.8403 0.1012 -0.7801 -4.6446 6.3509 1.6452 -0.7513 -1.8869 -0.5168 -0.6304 1.5571 -0.0328 1.9398 0.0077 2.5812 -4.2012 -3.3894 -1.4345 -0.6923 1.0970
-0.7433 100.5369 6.4689 -0.7952 3.1147 -0.0534 0.3761 -2.4072 -0.1139 -0.3117 -5.7875 -0.2797 1.0029 9.6713 -1.8842 2.3874 0.9380 1.9428 -0.7808 -3.7063 -0.3289 -1.0963 -8.5162 -0.7422 0.0084 0.0030 -0.0241 0.7147 -10.6141 -3.8878 -0.7006 -10.6515 3.8409 -21.6158 13.3065 -8.2203 -49.7976 8.4301 -37.6785 0.1485 0.0473 -26.9429 2.1650 -1.7524 0.0273 -15.5711 10.8498 15.9629 -60.2519 1.5977 2.4446 21.9956 11.0914 12.9423 55.1619 7.5422 15.2056 -0.0813 0.1400 32.5671 -6.7330 -9.7168 3.9381 15.5260 7.3013 -16.2277 49.9523 -3.6521 -5.2087 1.2161 -0.1569 -6.6156 0.0401 1.8528 0.0736 -0.7320 -4.8609 6.5884 1.6463 -0.7533 -1.8972 -0.5379 -0.6017 1.6039 -0.0315 1.9783 0.0128 2.6764 -4.3909 -3.3736 -1.4325 -0.7214 1.0906
-0.6829 100.5185 6.8309 -0.8313 3.1792 -0.1429 0.3520 -2.4195 -0.1116 -0.2977 -5.8295 -0.2986 1.0518 9.7462 -1.8745 2.3529 1.0458 1.9638 -0.7656 -3.7344 -0.2947 -1.1352 -8.5421 -0.6969 0.0089 0.0027 -0.0281 0.7117 -10.6283 -3.8908 -0.6963 -10.6623 3.8353 -21.6785 13.3389 -8.2237 -49.7678 8.4603 -37.7300 0.1274 0.0344 -26.9331 2.1110 -1.7778 -0.0027 -15.5465 10.8535 15.9448 -60.2267 1.6024 2.4531 22.0034 11.1155 12.9802 55.0267 7.5240 15.4961 -0.1070 0.1062 32.4762 -6.7150 -9.6583 3.9756 15.5492 7.3204 -16.2292 49.9632 -3.6242 -5.2155 1.1455 -0.0983 -6.7189 0.0471 1.8717 0.0642 -0.6398 -5.0931 6.8218 1.6472 -0.7480 -1.9008 -0.5825 -0.5673 1.5840 -0.0292 2.0349 0.0111 2.8031 -4.5954 -3.2973 -1.4316 -0.7279 1.0789
-0.6200 100.4915 7.1645 -0.8692 3.2584 -0.1909 0.3289 -2.4444 -0.1035 -0.2841 -5.8598 -0.3153 1.0934 9.8196 -1.8799 2.3059 1.1752 1.9838 -0.7430 -3.7428 -0.2935 -1.1324 -8.6275 -0.6305 0.0098 0.0025 -0.0278 0.7092 -10.6270 -3.8888 -0.6917 -10.6586 3.8328 -21.7591 13.3941 -8.2058 -49.7051 8.4770 -37.7734 0.1163 0.0389 -26.9478 2.0519 -1.6809 -0.0585 -15.5041 10.8650 15.9222 -60.2075 1.6286 2.4388 22.0177 11.1547 13.0405 54.8913 7.5487 15.8385 -0.1382 0.0874 32.4319 -6.7261 -9.5721 4.0111 15.5587 7.3219 -16.2172 49.9355 -3.6111 -5.2121 1.0754 -0.0541 -6.8680 0.0564 1.9015 0.0681 -0.5124 -5.3240 7.0478 1.6475 -0.7619 -1.9011 -0.6291 -0.5293 1.5404 -0.0267 2.0729 0.0149 2.9480 -4.7845 -3.2004 -1.4313 -0.7362 1.0634
-0.5438 100.4591 7.4712 -0.9078 3.3732 -0.2415 0.3028 -2.4800 -0.0877 -0.2737 -5.8936 -0.3255 1.1323 9.8972 -1.8659 2.2628 1.3211 1.9907 -0.7214 -3.7465 -0.2535 -1.1075 -8.7188 -0.5816 0.0100 0.0055 -0.0280 0.7074 -10.6260 -3.8879 -0.6894 -10.6547 3.8313 -21.8291 13.4424 -8.1766 -49.6475 8.5225 -37.7644 0.1149 0.0302 -27.0253 1.9631 -1.5481 -0.1332 -15.4589 10.8835 15.8996 -60.1701 1.6570 2.4123 22.0559 11.2168 13.1189 54.7194 7.6304 16.2634 -0.1665 0.0641 32.4498 -6.7620 -9.4640 4.0126 15.5486 7.3271 -16.2315 49.9182 -3.6085 -5.2093 0.9985 -0.0392 -7.0182 0.0656 1.9454 0.0834 -0.3834 -5.5774 7.2655 1.6472 -0.7712 -1.9070 -0.6769 -0.5149 1.4783 -0.0243 2.1055 0.0204 3.0989 -4.9811 -3.0756 -1.4310 -0.7405 1.0486
-0.4816 100.4355 7.7265 -0.9433 3.5191 -0.2764 0.2820 -2.5165 -0.0653 -0.2630 -5.9240 -0.3360 1.1564 9.9619 -1.8341 2.2065 1.4625 1.9843 -0.7074 -3.7403 -0.2093 -1.0549 -8.8288 -0.5528 0.0100 0.0074 -0.0273 0.7050 -10.6233 -3.8868 -0.6867 -10.6509 3.8321 -21.9054 13.4859 -8.1479 -49.5949 8.5839 -37.6918 0.1099 0.0243 -27.1326 1.8779 -1.4784 -0.2365 -15.4433 10.8868 15.8781 -60.1616 1.6728 2.3847 22.1216 11.2699 13.2236 54.5653 7.7818 16.7069 -0.1924 0.0489 32.4825 -6.8562 -9.3405 4.0345 15.5371 7.3181 -16.2311 49.8773 -3.6053 -5.2176 0.9231 -0.0494 -7.1733 0.0686 1.9950 0.0974 -0.2648 -5.8621 7.4816 1.6483 -0.8140 -1.9159 -0.7260 -0.5206 1.4135 -0.0204 2.1409 0.0357 3.2318 -5.1935 -2.9517 -1.4312 -0.8008 1.0357
-0.4194 100.4035 7.9715 -0.9742 3.7102 -0.2820 0.2645 -2.5638 -0.0556 -0.2575 -5.9427 -0.2973 1.1650 10.0167 -1.8191 2.1755 1.5836 1.9939 -0.7143 -3.7404 -0.1990 -1.0117 -8.9308 -0.5591 0.0094 0.0114 -0.0281 0.7013 -10.6211 -3.8863 -0.6839 -10.6466 3.8300 -21.9602 13.5061 -8.1145 -49.5499 8.6464 -37.5425 0.0817 0.0210 -27.2508 1.7988 -1.4877 -0.3516 -15.4164 10.9002 15.8645 -60.1418 1.6898 2.3869 22.1954 11.3302 13.3366 54.4383 7.9415 17.2136 -0.2229 0.0432 32.5082 -6.9727 -9.1905 4.0387 15.5318 7.3128 -16.2256 49.8577 -3.6027 -5.2226 0.8565 -0.0945 -7.3416 0.0701 2.0566 0.1062 -0.1777 -6.1806 7.7075 1.6467 -0.8575 -1.9229 -0.7755 -0.5446 1.3333 -0.0162 2.1588 0.0511 3.3055 -5.4301 -2.8540 -1.4295 -0.8864 1.0301
-0.3555 100.3726 8.2421 -1.0025 3.9572 -0.2662 0.2414 -2.6131 -0.0290 -0.2593 -5.9694 -0.2675 1.1676 10.0644 -1.7897 2.1466 1.6575 2.0146 -0.7218 -3.7317 -0.2344 -0.9831 -9.0324 -0.6105 0.0078 0.0175 -0.0351 0.6959 -10.6138 -3.8914 -0.6819 -10.6406 3.8228 -21.9940 13.5390 -8.0956 -49.5249 8.6523 -37.3104 0.0551 -0.0031 -27.2971 1.7359 -1.5325 -0.4928 -15.4013 10.9307 15.8785 -60.1693 1.7164 2.3960 22.2762 11.4194 13.4843 54.3231 8.0761 17.7392 -0.2184 0.0193 32.5081 -7.0991 -9.0142 4.0394 15.5012 7.3026 -16.2041 49.7972 -3.6056 -5.2278 0.7822 -0.2021 -7.5123 0.0718 2.1587 0.1126 -0.0841 -6.5596 7.9177 1.6473 -0.9162 -1.9238 -0.8274 -0.6150 1.2821 -0.0116 2.1884 0.0619 3.3671 -5.7229 -2.7743 -1.4288 -0.9842 1.0212
-0.2937 100.3414 8.5278 -1.0263 4.2582 -0.2250 0.2216 -2.6586 -0.0328 -0.2628 -5.9821 -0.2088 1.1584 10.0908 -1.7625 2.1014 1.6758 2.0337 -0.7310 -3.7253 -0.2859 -0.9586 -9.1363 -0.7036 0.0060 0.0219 -0.0415 0.6917 -10.6053 -3.8953 -0.6816 -10.6338 3.8136 -21.9727 13.5994 -8.0667 -49.5518 8.6117 -37.0634 0.0053 -0.0281 -27.2794 1.6913 -1.5745 -0.6319 -15.3796 10.9793 15.9173 -60.2073 1.7336 2.4114 22.2859 11.4940 13.6141 54.3127 8.2481 18.3574 -0.2576 0.0067 32.5249 -7.2109 -8.8539 4.0288 15.4978 7.2954 -16.1856 49.7648 -3.6100 -5.2308 0.7089 -0.3638 -7.6797 0.0787 2.3035 0.1266 0.0119 -6.9974 8.0652 1.6467 -0.9986 -1.9255 -0.8751 -0.7042 1.2305 -0.0077 2.2058 0.0855 3.4010 -6.0411 -2.7472 -1.4272 -1.0695 1.0170
-0.2127 100.3183 8.8745 -1.0623 4.6247 -0.1821 0.2098 -2.6834 -0.0190 -0.2580 -5.9980 -0.1640 1.1318 10.1062 -1.7298 2.0578 1.6165 2.0277 -0.7590 -3.7052 -0.3192 -0.9549 -9.2721 -0.8484 0.0061 0.0207 -0.0457 0.6916 -10.5948 -3.8989 -0.6811 -10.6250 3.8088 -21.9178 13.6891 -8.0521 -49.6431 8.5347 -36.7857 -0.0259 -0.0331 -27.1518 1.6018 -1.6211 -0.7294 -15.4072 11.0219 15.9321 -60.2909 1.7388 2.4025 22.2693 11.5908 13.7272 54.3225 8.4101 19.0092 -0.2963 0.0034 32.6096 -7.3327 -8.7433 4.0450 15.4883 7.2849 -16.1662 49.7175 -3.6130 -5.2301 0.6457 -0.6174 -7.8223 0.0858 2.5560 0.1465 0.1426 -7.5439 8.2040 1.6466 -1.0883 -1.9323 -0.9231 -0.8497 1.1586 -0.0111 2.2515 0.1074 3.4520 -6.3860 -2.7344 -1.4267 -1.1463 1.0198
-0.0951 100.2867 9.3336 -1.1192 5.0633 -0.1285 0.2184 -2.6901 0.0139 -0.2479 -6.0160 -0.1463 1.1050 10.1028 -1.6696 2.0331 1.5030 2.0152 -0.7901 -3.6870 -0.3812 -0.9828 -9.4516 -0.9979 0.0076 0.0181 -0.0454 0.6913 -10.5870 -3.8989 -0.6776 -10.6169 3.8103 -21.8101 13.8020 -8.0463 -49.8243 8.4369 -36.4563 -0.0577 -0.0219 -27.0081 1.4325 -1.6595 -0.7860 -15.4401 11.0625 15.9453 -60.3889 1.7391 2.3890 22.1932 11.6798 13.8179 54.3949 8.5360 19.5505 -0.3441 0.0109 32.7985 -7.5218 -8.7838 4.1336 15.4887 7.2750 -16.1511 49.6974 -3.6093 -5.2242 0.6018 -0.9338 -7.9970 0.0914 2.9113 0.1642 0.2804 -8.2192 8.3758 1.6451 -1.2000 -1.9443 -0.9616 -1.0096 1.0986 -0.0154 2.2956 0.1155 3.5243 -6.7724 -2.7426 -1.4267 -1.2451 1.0243
0.0426 100.2440 9.8677 -1.1925 5.5580 -0.0617 0.2416 -2.6914 0.0265 -0.2283 -6.0218 -0.0828 1.1003 10.0959 -1.6256 2.0379 1.3468 1.9936 -0.8355 -3.6789 -0.4732 -1.0053 -9.6710 -1.1489 0.0091 0.0151 -0.0450 0.6903 -10.5767 -3.8977 -0.6733 -10.5996 3.8092 -21.6670 13.9237 -8.0393 -50.0870 8.3087 -36.0840 -0.0951 -0.0074 -26.8954 1.1996 -1.7265 -0.8330 -15.4720 11.0848 15.9468 -60.4714 1.7430 2.3582 22.0837 11.7773 13.8993 54.4940 8.5769 19.8868 -0.4350 0.0379 33.0883 -7.8151 -9.0210 4.2993 15.4845 7.2748 -16.1572 49.6867 -3.6061 -5.2279 0.5591 -1.2878 -8.2128 0.1028 3.3460 0.1798 0.4633 -8.9973 8.5266 1.6451 -1.3628 -1.9540 -0.9928 -1.1544 1.0546 -0.0193 2.2991 0.1240 3.5671 -7.2150 -2.8110 -1.4261 -1.3627 1.0142
0.2337 100.1735 10.4879 -1.2774 6.1218 0.0517 0.2750 -2.6950 0.0423 -0.2023 -6.0328 0.0032 1.1249 10.0930 -1.5987 2.0612 1.1366 1.9574 -0.8872 -3.6860 -0.5940 -1.0343 -9.8790 -1.3377 0.0111 0.0107 -0.0431 0.6873 -10.5779 -3.8977 -0.6664 -10.5948 3.8122 -21.4727 14.0480 -7.9883 -50.4129 8.1327 -35.6656 -0.1750 0.0050 -26.8847 0.9399 -1.6055 -0.8201 -15.5009 11.1116 15.9339 -60.5716 1.7407 2.3153 21.9681 11.8622 13.9985 54.5950 8.5587 19.9382 -0.5146 0.0673 33.4318 -8.1759 -9.5031 4.5581 15.4662 7.2719 -16.1482 49.6560 -3.6051 -5.2249 0.5107 -1.6495 -8.4494 0.1116 3.8215 0.1854 0.7219 -9.8679 8.6206 1.6463 -1.5515 -1.9493 -1.0211 -1.2676 1.0611 -0.0286 2.2925 0.1303 3.6105 -7.7652 -2.9963 -1.4230 -1.5233 0.9991
0.4800 100.0728 11.2510 -1.3465 6.7406 0.2048 0.2946 -2.7034 0.0663 -0.1794 -6.0528 0.0769 1.1979 10.1130 -1.5566 2.1135 0.8731 1.9258 -0.9497 -3.7006 -0.7189 -1.0906 -10.0353 -1.5614 0.0153 0.0041 -0.0345 0.6851 -10.5817 -3.8901 -0.6553 -10.5942 3.8212 -21.2267 14.1502 -7.8880 -50.8129 7.8463 -35.1430 -0.2715 -0.0011 -27.0610 0.7145 -1.2277 -0.7836 -15.5091 11.1347 15.9194 -60.6323 1.7611 2.2705 21.8896 11.9444 14.1270 54.6531 8.5159 19.7167 -0.5530 0.0746 33.7755 -8.6106 -10.0681 4.8817 15.4275 7.2967 -16.1311 49.6784 -3.5818 -5.2053 0.4213 -1.9920 -8.7023 0.1153 4.2911 0.1837 1.0267 -10.8072 8.6573 1.6435 -1.7179 -1.9422 -1.0896 -1.3795 1.0495 -0.0366 2.3801 0.1299 3.6960 -8.4669 -3.2564 -1.4210 -1.6828 0.9865
0.7463 99.9194 12.1613 -1.3325 7.4013 0.4319 0.2615 -2.7072 0.0757 -0.1742 -6.0651 0.1521 1.2998 10.1370 -1.5171 2.2293 0.6142 1.9206 -1.0186 -3.7199 -0.9237 -1.1617 -10.2289 -1.7782 0.0201 0.0016 -0.0275 0.6824 -10.5796 -3.8849 -0.6427 -10.5943 3.8285 -20.9440 14.2607 -7.7460 -51.2362 7.4306 -34.5392 -0.3314 -0.0171 -27.4978 0.6862 -0.6875 -0.7812 -15.5222 11.1528 15.9067 -60.6464 1.7523 2.2246 21.8581 12.0378 14.2924 54.6969 8.4330 19.2366 -0.5851 0.0720 34.0716 -8.9692 -10.6564 5.2409 15.4171 7.3091 -16.1103 49.6960 -3.5744 -5.1670 0.2213 -2.2745 -8.9841 0.1185 4.7030 0.1879 1.3124 -11.7723 8.6215 1.6419 -1.8808 -1.9223 -1.2639 -1.6326 1.0155 -0.0404 2.8707 0.1075 3.8373 -9.4254 -3.6008 -1.4205 -1.7744 0.9830
